# xmcd
#
# Track frame offsets:
#	150
#	13414
#	29105
#	53249
#	66656
#	79521
#	95623
#	125455
#	143400
#	159379
#	175133
#	194806
#	207116
#	228412
#	250543
#	263252
#	276527
#	285769
#	298110
#	312785
#
# Disc length: 4326
#
# Revision: 1
# Processed by: cddbd v1.5.1PL0 Copyright (c) Steve Scherf et al.
# Submitted via: audiograbber 1.81.01
# Normalized: r0:DSETVAR1
#
DISCID=2410e414
DTITLE=Various Artist - MEGA SOUL [CD1 of 4)
DYEAR=2003
DGENRE=Soul
TTITLE0=SAM and DAVE - SOUL MAN
TTITLE1=EDDIE FLOYD - KNOCK ON WOOD
TTITLE2=EDWIN STARR - MUSTANG SALLY
TTITLE3=BEN E. KING - STAND BY ME
TTITLE4=PERCY SLEDGE - WHEN A MAN  LOVES A WOMAN
TTITLE5=HAROLD MELVIN and THE BLUE NOTES - IF YOU DON'T KNOW ME BY NOW
TTITLE6=JOE TEX - AIN'T GONNA BUMP NO MORE
TTITLE7=MOTORCITY ALL STARS - I CAN'T HELP MYSELF
TTITLE8=THE IMPRESSIONS - AMEN
TTITLE9=SARAH VAUGHAN - STHORMY WEATHER
TTITLE10=HEATHWAVE FEAT. JOCELYN BROWN - FEEL LIKE MAKING LOVE
TTITLE11=BROOK BENTON - RAINY NIGHT IN GEORGIA
TTITLE12=TEDDY PENDERGRASS - TURN OF THE LIGHTS
TTITLE13=MARVIN GAYE - HOW SWEET IT IS TO BE LOVED BY YOU\\
TTITLE14=DOBIE GRAY - THE "IN CROWD"
TTITLE15=THE PLATTERS - TWILIGHT TIME
TTITLE16=AL JARREAU - AIN"T NO SUNSHINE
TTITLE17=BARRY WHITE - OUT OF THE SHADOW OF LOVE
TTITLE18=CLARENCE CARTER - PATCHES
TTITLE19=THE SHIRELLES - WILL YOU LOVE ME TOMORROW
EXTD=
EXTT0=
EXTT1=
EXTT2=
EXTT3=
EXTT4=
EXTT5=
EXTT6=
EXTT7=
EXTT8=
EXTT9=
EXTT10=
EXTT11=
EXTT12=
EXTT13=
EXTT14=
EXTT15=
EXTT16=
EXTT17=
EXTT18=
EXTT19=
PLAYORDER=
